<svg width="574" height="202" viewBox="0 0 574 202" fill="none" xmlns="http://www.w3.org/2000/svg">
  <path fill-rule="evenodd" clip-rule="evenodd" d="M298.268 27.6741V36.7143H304.696V47.9643H309.518V66.9542C311.81 65.7213 314.365 64.9172 316.833 65.3232C317.522 65.4365 318.149 65.6051 318.718 65.8175L310.386 53.97C310.386 53.97 311.752 54.082 313.691 54.4786C317.513 55.2607 323.563 57.1492 325.763 61.4679C326.526 62.9675 326.816 64.3648 326.809 65.6274C327.769 64.8068 329.023 64.1252 330.661 63.7395C335.378 62.6287 340.728 66.027 343.794 68.4399C345.35 69.6638 346.318 70.6342 346.318 70.6342L331.891 71.9267C332.421 72.2244 332.955 72.5937 333.486 73.0464C337.176 76.189 337.607 82.512 337.48 86.4119C337.415 88.3899 337.207 89.7446 337.207 89.7446L325.756 76.7775L320.416 94.5245H331.978L320.625 135.271C318.858 141.613 313.081 146 306.498 146H256.538C252.611 146 249.258 143.161 248.612 139.287L248.312 137.489C246.529 140.597 243.362 142.868 239.521 143.356C232.125 144.296 225.708 138.255 226.2 130.815L226.91 120.105C227.091 117.361 224.736 115.128 222.006 115.456C220.39 115.65 219.013 116.722 218.43 118.241L208.569 143.931C206.228 150.031 198.54 151.954 193.603 147.674C190.358 144.861 189.422 140.214 191.336 136.368C193.071 132.881 195.33 128.347 197.28 124.445C197.124 124.408 196.97 124.358 196.818 124.295C195.201 123.629 194.431 121.779 195.096 120.162L197.073 115.362C197.707 113.823 199.468 113.09 201.007 113.723L202.461 114.322L205.058 109.362C208.838 102.14 205.597 93.232 198.061 90.1278C190.524 87.0237 181.949 91.0655 179.547 98.8545L177.897 104.205L179.351 104.804C180.89 105.438 181.623 107.199 180.99 108.738L179.013 113.537C178.347 115.154 176.496 115.925 174.88 115.259C173.352 114.63 172.565 112.932 173.072 111.36L175.272 104.538L177.244 98.1441C180.064 88.9997 190.13 84.2544 198.979 87.8988C207.827 91.5431 211.632 102.002 207.193 110.48L204.09 116.408L200.847 122.8C200.769 122.955 200.679 123.1 200.58 123.236C198.434 127.523 195.59 133.232 193.495 137.442C192.071 140.302 192.766 143.758 195.182 145.852C198.856 149.037 204.577 147.606 206.319 143.067L216.179 117.378C217.083 115.023 219.215 113.362 221.719 113.062C225.947 112.555 229.597 116.014 229.315 120.264L228.606 130.975C228.213 136.901 233.325 141.714 239.217 140.965C243.766 140.387 247.128 136.67 247.445 132.291L241.615 97.3415L241.613 97.3319L239.467 84.784C239.005 82.0824 236.663 80.1071 233.923 80.1071H219.518V75.2857H233.923C239.013 75.2857 243.362 78.9542 244.22 83.9713L246.024 94.5245H255.507C255.434 94.4184 255.363 94.3145 255.295 94.2129C251.984 89.3062 248.967 83.3784 246.786 78.703C245.693 76.3602 244.805 74.3212 244.19 72.867C243.883 72.1398 243.643 71.5584 243.48 71.1579L243.462 71.1138C243.404 71.0977 243.343 71.0801 243.278 71.0612C242.783 70.9156 242.101 70.6847 241.341 70.3405C239.84 69.6602 237.94 68.4925 236.642 66.5693C235.797 65.3178 235.211 63.6813 234.791 62.0148C234.367 60.3311 234.092 58.5291 233.912 56.8887C233.732 55.2451 233.646 53.7429 233.604 52.6523C233.583 52.1063 233.574 51.6619 233.569 51.3525C233.567 51.1977 233.566 51.0766 233.566 50.9934L233.566 50.8974L233.566 50.8717L233.566 50.8613L233.574 49.0935L235.217 49.7472L235.218 49.7476L235.226 49.7511L235.25 49.7607L235.339 49.7968C235.416 49.8283 235.528 49.8744 235.671 49.9344C235.956 50.0543 236.365 50.2295 236.863 50.4532C237.859 50.8999 239.22 51.5423 240.676 52.3245C242.13 53.105 243.698 54.0346 245.101 55.0581C246.489 56.071 247.787 57.2273 248.632 58.4788C249.93 60.402 250.301 62.6016 250.37 64.2479C250.405 65.0811 250.364 65.8003 250.313 66.3143C250.307 66.381 250.3 66.4444 250.293 66.5043L250.328 66.5375C250.638 66.8385 251.087 67.2782 251.647 67.8356C252.593 68.7787 253.854 70.0595 255.288 71.5764C255.506 70.6599 255.965 69.7883 256.668 69.0624L260.564 65.0376L262.045 69.9187L266.971 71.2402L263.996 74.3134L269.104 79.2581C270.06 80.1837 271.586 80.159 272.511 79.2029C273.437 78.2467 273.412 76.7213 272.456 75.7956L267.84 71.3274C264.174 67.7775 264.079 61.9271 267.629 58.2602L269.265 56.5699C267.552 54.5458 267.62 51.5127 269.503 49.5671L270.983 48.0385L272.715 49.7153L271.236 51.2439C270.159 52.3558 270.184 54.1275 271.288 55.2091L271.3 55.2208L272.812 56.6848C273.004 55.74 273.458 54.8369 274.179 54.093L275.658 52.5644L277.39 54.2411L275.911 55.7697C274.833 56.8832 274.859 58.6583 275.968 59.7394L275.975 59.7467L278.283 61.9808L282.958 66.5067C283.583 67.1116 284.133 67.7647 284.607 68.4546V47.9643H289.429V36.7143H295.857V27.6741H298.268ZM198.547 121.913C199.841 119.327 200.869 117.286 201.301 116.452L200.089 115.953C199.781 115.826 199.429 115.972 199.302 116.28L197.326 121.08C197.167 121.466 197.351 121.907 197.736 122.066C198.02 122.183 198.336 122.114 198.547 121.913ZM269.492 94.5245H258.47C258.019 93.9116 257.625 93.3559 257.293 92.8645C254.957 89.4028 252.755 85.3873 250.896 81.6708L257.301 77.3489C260.051 80.4641 262.951 84.0091 265.287 87.4708C266.369 89.0749 267.821 91.5328 269.492 94.5245ZM284.607 94.5245H272.249C270.503 91.3621 268.934 88.6538 267.707 86.7606C272.659 89.6121 279.095 88.861 283.251 84.5683C283.756 84.0461 284.208 83.4919 284.607 82.9124V94.5245ZM292.643 94.5245H287.018V50.375H289.429H292.643V94.5245ZM299.071 94.5245H295.054V50.375H299.071V94.5245ZM306.02 94.5245H301.482V50.375H304.696H307.107V68.4536C305.941 69.2742 304.9 70.1403 304.051 70.9084C302.582 72.2355 301.683 73.2697 301.683 73.2697L307.107 73.3841V92.8414L307.019 92.9876L306.02 94.5245ZM308.908 94.5245H317.898L323.851 74.7409L323.034 73.7202L321.445 73.6866L309.518 93.5107V93.5669L309.063 94.2662L308.908 94.5245ZM291.839 47.9643V39.125H302.286V47.9643H291.839ZM321.268 71.2678H321.087L307.727 70.9859C307.813 70.9205 307.9 70.8552 307.989 70.7901C310.796 68.7138 313.874 67.2797 316.442 67.7019C319.129 68.1439 320.447 69.641 321.171 71.07C321.205 71.1361 321.237 71.2021 321.268 71.2678ZM318.666 73.628L309.518 88.8344V73.435L318.666 73.628ZM323.599 68.5662L315.806 57.4864C315.91 57.5172 316.014 57.5487 316.119 57.5811C319.455 58.6129 322.434 60.2431 323.615 62.5619C324.851 64.989 324.425 66.9377 323.703 68.3674C323.669 68.4348 323.634 68.5011 323.599 68.5662ZM340.132 68.7681L326.64 69.9768C326.667 69.9077 326.695 69.8384 326.725 69.7688C327.349 68.2938 328.562 66.7103 331.213 66.0861C333.746 65.4896 336.915 66.7106 339.858 68.5905C339.907 68.622 339.956 68.6535 340.004 68.685C340.047 68.7127 340.09 68.7403 340.132 68.7681ZM335.046 83.6556L326.079 73.5023C326.151 73.483 326.223 73.4646 326.297 73.4471C327.855 73.0766 329.85 73.1156 331.923 74.8817C333.904 76.569 334.798 79.8452 335.026 83.3295C335.034 83.4388 335.04 83.5475 335.046 83.6556ZM249.928 117.875L246.837 99.3459H268.693L269.971 117.875H249.928ZM250.733 122.696L253.368 138.493C253.626 140.043 254.967 141.179 256.538 141.179H271.578L270.303 122.696H250.733ZM275.136 122.696L276.411 141.179H294.371L295.327 122.696H275.136ZM300.155 122.696L299.199 141.179H306.498C310.917 141.179 314.794 138.234 315.98 133.977L319.123 122.696H300.155ZM320.467 117.875H300.405L301.363 99.3459H325.629L320.467 117.875ZM295.577 117.875H274.804L273.526 99.3459H296.535L295.577 117.875ZM371.033 119.91C373.086 113.888 378.743 109.839 385.105 109.839H405.946V107.429H385.105C377.727 107.429 371.165 112.113 368.767 119.087L351.678 158.786L351.663 158.831C349.627 164.807 344.005 168.5 337.592 168.5H307.58C310.621 167.102 312.732 164.03 312.732 160.464C312.732 155.582 308.775 151.625 303.893 151.625C299.011 151.625 295.054 155.582 295.054 160.464C295.054 164.03 297.165 167.102 300.205 168.5H266.598C269.639 167.102 271.75 164.03 271.75 160.464C271.75 155.582 267.792 151.625 262.911 151.625C258.029 151.625 254.071 155.582 254.071 160.464C254.071 164.03 256.183 167.102 259.223 168.5H242.473C241.115 168.5 239.884 167.836 238.341 167.004L238.327 166.996L238.324 166.995L238.303 166.983L238.095 166.871C238.012 166.827 237.928 166.782 237.844 166.736C236.58 166.061 235.242 165.899 233.902 166.323C232.607 166.733 231.427 167.654 230.341 168.921C229.069 170.405 227.995 170.911 227.123 170.911C226.251 170.911 225.177 170.405 223.906 168.921C222.422 167.19 220.74 166.089 218.858 166.089C216.975 166.089 215.293 167.19 213.81 168.921C212.538 170.405 211.465 170.911 210.592 170.911C209.72 170.911 208.647 170.405 207.375 168.921C205.892 167.19 204.21 166.089 202.327 166.089C200.444 166.089 198.763 167.19 197.279 168.921C196.008 170.405 194.934 170.911 194.062 170.911C193.189 170.911 192.116 170.405 190.844 168.921C189.361 167.19 187.679 166.089 185.797 166.089C183.914 166.089 182.232 167.19 180.749 168.921C179.477 170.405 178.404 170.911 177.531 170.911C176.659 170.911 175.586 170.405 174.314 168.921C172.83 167.19 171.149 166.089 169.266 166.089C167.383 166.089 165.701 167.19 164.218 168.921C162.92 170.436 161.873 170.981 161.041 171.012C160.241 171.042 159.229 170.608 157.955 169.122L156.125 170.691C157.606 172.419 159.263 173.491 161.132 173.421C162.969 173.352 164.592 172.189 166.048 170.49C167.32 169.006 168.393 168.5 169.266 168.5C170.138 168.5 171.212 169.006 172.483 170.49C173.967 172.22 175.649 173.321 177.531 173.321C179.414 173.321 181.096 172.22 182.579 170.49C183.851 169.006 184.924 168.5 185.797 168.5C186.669 168.5 187.742 169.006 189.014 170.49C190.497 172.22 192.179 173.321 194.062 173.321C195.944 173.321 197.626 172.22 199.11 170.49C200.381 169.006 201.455 168.5 202.327 168.5C203.2 168.5 204.273 169.006 205.545 170.49C207.028 172.22 208.71 173.321 210.592 173.321C212.475 173.321 214.157 172.22 215.64 170.49C216.912 169.006 217.985 168.5 218.858 168.5C219.73 168.5 220.803 169.006 222.075 170.49C223.559 172.22 225.24 173.321 227.123 173.321C229.006 173.321 230.688 172.22 232.171 170.49C233.093 169.414 233.919 168.846 234.63 168.621C235.297 168.41 235.965 168.466 236.708 168.863C236.871 168.95 237.04 169.042 237.214 169.137L237.216 169.138C238.665 169.93 240.462 170.911 242.473 170.911H337.592C344.919 170.911 351.516 166.672 353.929 159.654L371.018 119.955L371.033 119.91ZM262.911 164.482C265.13 164.482 266.929 162.683 266.929 160.464C266.929 158.245 265.13 156.446 262.911 156.446C260.692 156.446 258.893 158.245 258.893 160.464C258.893 162.683 260.692 164.482 262.911 164.482ZM303.893 164.482C306.112 164.482 307.911 162.683 307.911 160.464C307.911 158.245 306.112 156.446 303.893 156.446C301.674 156.446 299.875 158.245 299.875 160.464C299.875 162.683 301.674 164.482 303.893 164.482ZM354.136 91.1868C353.172 91.7687 352.107 92.9048 352.107 95.375H349.696C349.696 92.7694 348.618 91.6638 347.691 91.1323C347.187 90.8434 346.671 90.6956 346.274 90.6218C346.078 90.5853 345.918 90.5682 345.812 90.5603C345.76 90.5563 345.722 90.5547 345.7 90.554L345.686 90.5535C345.686 90.5535 345.687 90.5535 345.687 90.5078L345.635 88.1879L345.633 88.1508L345.632 88.1448C345.632 88.1437 345.632 88.1437 345.632 88.1437L345.648 88.1425C345.67 88.1409 345.709 88.1375 345.763 88.1312C345.87 88.1186 346.033 88.0947 346.232 88.0502C346.634 87.9603 347.159 87.7924 347.673 87.486C348.633 86.9143 349.696 85.7907 349.696 83.3214H352.107C352.107 85.9263 353.184 87.0191 354.107 87.5406C354.609 87.8248 355.124 87.9684 355.52 88.0391C355.716 88.0741 355.876 88.0899 355.982 88.0971L356.012 88.0989L356.042 88.1005C356.064 88.1016 356.082 88.1022 356.094 88.1025L356.114 88.1028L356.111 88.1028L356.109 88.1028L356.108 88.1028L356.108 88.104L356.108 88.1103L356.108 88.1268L356.108 88.1486L356.178 90.468C356.18 90.5122 356.181 90.5121 356.181 90.5121L356.165 90.5134L356.133 90.5164L356.102 90.5195L356.07 90.5232L356.05 90.5257C355.942 90.5391 355.78 90.5643 355.58 90.6104C355.177 90.7035 354.652 90.8757 354.136 91.1868ZM352.499 89.3782C351.898 88.9719 351.333 88.4339 350.87 87.7346C350.416 88.3896 349.874 88.9035 349.305 89.3006C349.905 89.7104 350.47 90.2517 350.934 90.9541C351.387 90.296 351.93 89.7787 352.499 89.3782ZM349.939 116.054L344.03 119.641L345.507 126.394L339.598 129.981L341.075 136.734L335.166 140.322L336.643 147.075L330.734 150.662L332.395 158.256L334.75 157.741L333.457 151.829L339.366 148.242L337.889 141.489L343.798 137.901L342.321 131.148L348.23 127.561L346.753 120.808L352.661 117.221L351 109.627L348.645 110.142L349.939 116.054ZM255.676 75.5373L249.824 79.4857C249.528 78.8696 249.243 78.2675 248.971 77.6839C247.893 75.3725 247.017 73.3608 246.411 71.928C246.177 71.3755 245.983 70.9092 245.834 70.5454L248.879 68.4911C249.16 68.7657 249.52 69.1196 249.945 69.5431C251.047 70.6413 252.584 72.2066 254.324 74.0715C254.764 74.5424 255.215 75.0319 255.676 75.5373ZM262.026 76.3482L262.32 76.0455L267.427 80.9902C269.34 82.8418 272.392 82.7924 274.243 80.8796C276.095 78.9669 276.046 75.9153 274.133 74.0636L273.96 73.8962L280.329 67.3171L281.281 68.2387C285.393 72.2194 285.499 78.7797 281.519 82.8915C277.538 87.0034 270.978 87.1098 266.866 83.1291L260.979 77.4301L262.026 76.3482ZM262.39 72.5071L262.264 72.6367L260.294 74.6714L259.247 75.7534L258.469 75.0002C257.273 73.8427 257.242 71.9349 258.4 70.7392L259.447 69.658L260.127 71.9001L262.39 72.5071ZM271.931 59.187L274.288 61.4686L274.298 61.4787L276.606 63.7129L278.597 65.6403L272.228 72.2195L269.517 69.5953C266.807 66.9715 266.737 62.6473 269.361 59.937L270.979 58.2653L271.931 59.187ZM272.617 64.7146C272.062 65.2884 271.147 65.3033 270.573 64.7478C269.999 64.1923 269.984 63.2769 270.54 62.7031C271.095 62.1294 272.011 62.1145 272.584 62.67C273.158 63.2255 273.173 64.1409 272.617 64.7146ZM247.896 66.2455L244.119 68.7943C244.069 68.7804 244.015 68.7651 243.958 68.7483C243.547 68.6274 242.973 68.4335 242.336 68.1448C241.044 67.5591 239.59 66.6282 238.64 65.2209C238.024 64.3075 237.521 62.9831 237.129 61.426C236.741 59.886 236.481 58.2017 236.309 56.6262C236.145 55.1308 236.061 53.7522 236.019 52.717C236.963 53.1436 238.211 53.7368 239.536 54.4484C240.932 55.1981 242.397 56.0694 243.68 57.0055C244.977 57.952 246.017 58.9139 246.633 59.8272C247.583 61.2346 247.902 62.9314 247.961 64.349C247.991 65.0477 247.956 65.6522 247.914 66.079C247.908 66.1381 247.902 66.1937 247.896 66.2455ZM177.168 106.512L175.367 112.1C175.246 112.475 175.433 112.88 175.798 113.03C176.183 113.189 176.625 113.005 176.784 112.619L178.761 107.82C178.887 107.512 178.741 107.16 178.433 107.033L177.168 106.512ZM140.434 88.1656C147.097 88.1656 152.499 82.7639 152.499 76.1006C152.499 69.5852 147.334 64.276 140.875 64.0436C143.607 66.5031 145.324 70.0664 145.324 74.0327C145.324 80.269 141.076 85.5133 135.316 87.0303C136.87 87.759 138.604 88.1656 140.434 88.1656ZM131.468 87.4661C130.424 86.6417 129.497 85.6767 128.714 84.5995C129.718 84.9002 130.782 85.0618 131.884 85.0618C132.038 85.0618 132.192 85.0586 132.344 85.0524C138.222 84.8111 142.913 79.9697 142.913 74.0327C142.913 69.9213 140.663 66.3353 137.328 64.4386C136.277 63.8411 135.119 63.4113 133.889 63.1854C135.061 62.5903 136.325 62.1501 137.654 61.8916C138.553 61.7166 139.483 61.625 140.434 61.625C148.428 61.625 154.909 68.1059 154.909 76.1006C154.909 84.0953 148.428 90.5763 140.434 90.5763C137.048 90.5763 133.933 89.4138 131.468 87.4661ZM98.5726 93.7678C108.472 93.7678 116.924 100.581 119.911 109.554L120.328 110.806L121.537 110.277C124.083 109.165 126.777 108.232 129.518 108.232C140.021 108.232 148.643 116.79 149.329 127.192L149.429 128.714L150.887 128.264C152.171 127.868 153.595 127.503 154.824 127.503C161.41 127.503 166.644 132.356 167.231 138.768H98.9744V141.179H169.696V139.973C169.696 131.644 163.149 125.092 154.824 125.092C153.74 125.092 152.609 125.301 151.589 125.56C150.146 114.635 140.859 105.821 129.518 105.821C126.741 105.821 124.099 106.623 121.756 107.57C118.135 98.3097 109.145 91.3571 98.5726 91.3571C86.3531 91.3571 76.2269 100.472 74.0915 112.031L76.4621 112.469C78.3989 101.985 87.5839 93.7678 98.5726 93.7678ZM28.2679 122.822L22.6429 118.804L16.3173 123.323L17.7185 125.284L22.6429 121.767L28.2679 125.785L33.8929 121.767L39.5179 125.785L45.1429 121.767L50.7679 125.785L56.3929 121.767L62.0179 125.785L67.6429 121.767L73.2679 125.785L78.8929 121.767L84.5179 125.785L90.1429 121.767L95.0673 125.284L96.4685 123.323L90.1429 118.804L84.5179 122.822L78.8929 118.804L73.2679 122.822L67.6429 118.804L62.0179 122.822L56.3929 118.804L50.7679 122.822L45.1429 118.804L39.5179 122.822L33.8929 118.804L28.2679 122.822ZM52.375 150.821H42.7321V148.411H52.375V150.821ZM65.2321 150.821H55.5893V148.411H65.2321V150.821ZM78.0893 150.821H68.4464V148.411H78.0893V150.821ZM90.9464 150.821H81.3036V148.411H90.9464V150.821ZM103.804 150.821H94.1607V148.411H103.804V150.821ZM116.661 150.821H107.018V148.411H116.661V150.821ZM129.518 150.821H119.875V148.411H129.518V150.821ZM142.375 150.821H132.732V148.411H142.375V150.821ZM155.232 150.821H145.589V148.411H155.232V150.821ZM355.591 69.6815L359.266 77.0301L361.422 75.952L359.069 71.247L362.865 70.2323L362.242 67.9034L355.591 69.6815ZM365.677 69.4804L375.722 66.7951L375.099 64.4661L365.055 67.1515L365.677 69.4804ZM378.936 65.9357L388.579 63.3578L387.956 61.0289L378.314 63.6068L378.936 65.9357ZM397.14 61.0692L391.793 62.4985L391.171 60.1696L399.55 57.9293V65.6428L397.14 65.6428V61.0692ZM360.672 79.8426L364.89 88.2801L367.047 87.202L362.828 78.7645L360.672 79.8426ZM399.55 78.5V68.8571H397.14V78.5H399.55ZM366.297 91.0929L369.161 96.821L375.757 94.8405L375.064 92.5316L370.41 93.9289L368.453 90.0148L366.297 91.0929ZM399.522 86.2452L399.55 81.7218L397.14 81.7067L397.112 86.0306L391.146 87.7629L391.818 90.078L398.154 88.2386L402.382 90.6874L403.59 88.6013L399.522 86.2452ZM379.366 93.7191L388.205 91.1269L387.527 88.8136L378.688 91.4058L379.366 93.7191ZM409.882 92.2453L405.747 89.8505L404.539 91.9366L410.047 95.1267L415.436 91.119L413.998 89.1845L409.882 92.2453ZM422.905 82.5554L416.477 87.341L417.916 89.2748L424.345 84.4891L422.905 82.5554ZM455.337 146C454.465 146 453.392 146.506 452.12 147.99C450.663 149.689 449.041 150.852 447.203 150.921C445.334 150.991 443.678 149.919 442.196 148.191L444.027 146.622C445.3 148.108 446.313 148.542 447.113 148.512C447.945 148.481 448.991 147.936 450.289 146.421C451.773 144.69 453.455 143.589 455.337 143.589C457.22 143.589 458.902 144.69 460.385 146.421C461.657 147.905 462.73 148.411 463.603 148.411C464.475 148.411 465.548 147.905 466.82 146.421C468.303 144.69 469.985 143.589 471.868 143.589C473.751 143.589 475.432 144.69 476.916 146.421C478.188 147.905 479.261 148.411 480.133 148.411C481.006 148.411 482.079 147.905 483.351 146.421C484.834 144.69 486.516 143.589 488.399 143.589C490.281 143.589 491.963 144.69 493.446 146.421C494.718 147.905 495.791 148.411 496.664 148.411C497.536 148.411 498.61 147.905 499.881 146.421C501.365 144.69 503.046 143.589 504.929 143.589C506.812 143.589 508.494 144.69 509.977 146.421C511.249 147.905 512.322 148.411 513.194 148.411C514.067 148.411 515.14 147.905 516.412 146.421C517.895 144.69 519.577 143.589 521.46 143.589C523.342 143.589 525.024 144.69 526.508 146.421L524.677 147.99C523.405 146.506 522.332 146 521.46 146C520.587 146 519.514 146.506 518.242 147.99C516.759 149.72 515.077 150.821 513.194 150.821C511.312 150.821 509.63 149.72 508.147 147.99C506.875 146.506 505.802 146 504.929 146C504.057 146 502.983 146.506 501.712 147.99C500.228 149.72 498.547 150.821 496.664 150.821C494.781 150.821 493.099 149.72 491.616 147.99C490.344 146.506 489.271 146 488.399 146C487.526 146 486.453 146.506 485.181 147.99C483.698 149.72 482.016 150.821 480.133 150.821C478.251 150.821 476.569 149.72 475.085 147.99C473.814 146.506 472.74 146 471.868 146C470.995 146 469.922 146.506 468.65 147.99C467.167 149.72 465.485 150.821 463.603 150.821C461.72 150.821 460.038 149.72 458.555 147.99C457.283 146.506 456.21 146 455.337 146ZM445.084 101.317C448.07 92.3484 456.319 85.7321 466.222 85.7321C477.232 85.7321 486.6 93.8527 488.533 104.316L490.904 103.878C488.765 92.298 478.421 83.3214 466.222 83.3214C455.65 83.3214 446.84 90.09 443.235 99.3418C440.865 98.4235 438.259 97.7759 435.509 97.7759C424.17 97.7759 414.832 106.42 413.402 117.362C412.422 117.162 411.409 117.057 410.373 117.057C402.07 117.057 395.299 123.586 395.299 131.937V133.143H467.018V130.732H397.767C398.374 124.339 403.766 119.467 410.373 119.467C411.675 119.467 412.929 119.664 414.108 120.028L415.566 120.477L415.666 118.955C416.351 108.57 424.989 100.187 435.509 100.187C438.287 100.187 440.97 100.954 443.458 102.041L444.667 102.569L445.084 101.317ZM343.267 50.7767C343.267 50.7767 343.268 50.7767 343.268 49.5714C343.268 48.366 343.267 48.366 343.267 48.366L343.267 48.366L343.28 48.3657L343.307 48.3648C343.347 48.3633 343.411 48.36 343.497 48.3529C343.668 48.3387 343.923 48.3095 344.232 48.2498C344.856 48.1294 345.674 47.8906 346.481 47.4233C348.016 46.5345 349.696 44.7227 349.696 40.7321H352.107C352.107 44.7227 353.787 46.5345 355.323 47.4233C356.13 47.8906 356.948 48.1294 357.571 48.2498C357.881 48.3095 358.135 48.3387 358.307 48.3529C358.393 48.36 358.457 48.3633 358.496 48.3648L358.527 48.3658L358.536 48.366L358.537 48.366C358.536 48.366 358.536 48.366 358.536 49.5714C358.536 50.7767 358.536 50.7767 358.537 50.7767L358.536 50.7768C358.53 50.7769 358.516 50.7773 358.496 50.778C358.457 50.7795 358.393 50.7828 358.307 50.7899C358.135 50.8041 357.881 50.8333 357.571 50.893C356.948 51.0134 356.13 51.2522 355.323 51.7195C353.787 52.6083 352.107 54.42 352.107 58.4107H349.696C349.696 54.42 348.016 52.6083 346.481 51.7195C345.674 51.2522 344.856 51.0134 344.232 50.893C343.923 50.8333 343.668 50.8041 343.497 50.7899C343.411 50.7828 343.347 50.7795 343.307 50.778C343.287 50.7773 343.274 50.7769 343.267 50.7768L343.267 50.7767ZM347.615 49.5521L347.58 49.5714C347.616 49.5916 347.653 49.6122 347.689 49.6332C348.9 50.3344 350.07 51.3982 350.902 52.9673C351.733 51.3982 352.904 50.3344 354.115 49.6332C354.151 49.6122 354.187 49.5916 354.223 49.5714C354.187 49.5512 354.151 49.5306 354.115 49.5096C352.904 48.8084 351.733 47.7446 350.902 46.1755C350.07 47.7446 348.9 48.8084 347.689 49.5096C347.664 49.5239 347.639 49.5381 347.615 49.5521ZM498.357 133.143C499.245 133.143 499.964 132.423 499.964 131.536C499.964 130.648 499.245 129.929 498.357 129.929C497.47 129.929 496.75 130.648 496.75 131.536C496.75 132.423 497.47 133.143 498.357 133.143ZM504.786 133.143C505.673 133.143 506.393 132.423 506.393 131.536C506.393 130.648 505.673 129.929 504.786 129.929C503.898 129.929 503.179 130.648 503.179 131.536C503.179 132.423 503.898 133.143 504.786 133.143ZM512.822 131.536C512.822 132.423 512.102 133.143 511.214 133.143C510.327 133.143 509.607 132.423 509.607 131.536C509.607 130.648 510.327 129.929 511.214 129.929C512.102 129.929 512.822 130.648 512.822 131.536ZM517.643 133.143C518.531 133.143 519.25 132.423 519.25 131.536C519.25 130.648 518.531 129.929 517.643 129.929C516.755 129.929 516.036 130.648 516.036 131.536C516.036 132.423 516.755 133.143 517.643 133.143ZM525.679 131.536C525.679 132.423 524.959 133.143 524.072 133.143C523.184 133.143 522.464 132.423 522.464 131.536C522.464 130.648 523.184 129.929 524.072 129.929C524.959 129.929 525.679 130.648 525.679 131.536ZM530.5 133.143C531.388 133.143 532.107 132.423 532.107 131.536C532.107 130.648 531.388 129.929 530.5 129.929C529.612 129.929 528.893 130.648 528.893 131.536C528.893 132.423 529.612 133.143 530.5 133.143ZM538.536 131.536C538.536 132.423 537.816 133.143 536.929 133.143C536.041 133.143 535.321 132.423 535.321 131.536C535.321 130.648 536.041 129.929 536.929 129.929C537.816 129.929 538.536 130.648 538.536 131.536ZM543.357 133.143C544.245 133.143 544.964 132.423 544.964 131.536C544.964 130.648 544.245 129.929 543.357 129.929C542.47 129.929 541.75 130.648 541.75 131.536C541.75 132.423 542.47 133.143 543.357 133.143ZM207.464 71.2678C207.464 68.7977 208.529 67.6615 209.493 67.0797C210.009 66.7685 210.535 66.5963 210.937 66.5032C211.137 66.4572 211.299 66.4319 211.407 66.4185C211.461 66.4118 211.5 66.4081 211.522 66.4063L211.539 66.4049L211.538 66.405C211.538 66.405 211.538 66.405 211.537 66.3975C211.537 66.3915 211.536 66.3806 211.535 66.3608L211.465 64.0414C211.464 63.9957 211.465 63.9957 211.465 63.9957L211.466 63.9957L211.468 63.9956L211.471 63.9956L211.452 63.9953C211.43 63.9948 211.392 63.9935 211.339 63.9899C211.233 63.9828 211.073 63.9669 210.878 63.932C210.481 63.8613 209.966 63.7177 209.464 63.4334C208.541 62.9119 207.464 61.8192 207.464 59.2142H205.054C205.054 61.6835 203.99 62.8071 203.03 63.3788C202.516 63.6852 201.991 63.8531 201.589 63.9431C201.39 63.9875 201.227 64.0115 201.12 64.0241C201.066 64.0303 201.027 64.0337 201.005 64.0354L200.988 64.0366L200.989 64.0366C200.989 64.0366 200.99 64.0365 200.992 64.0807L201.044 66.4007C201.044 66.4464 201.044 66.4464 201.044 66.4464L201.042 66.4464L201.04 66.4464L201.037 66.4464L201.057 66.4468C201.079 66.4475 201.117 66.4492 201.17 66.4531C201.275 66.4611 201.435 66.4782 201.632 66.5146C202.028 66.5884 202.544 66.7362 203.048 67.0251C203.975 67.5566 205.054 68.6622 205.054 71.2678H207.464ZM206.227 63.6274C206.69 64.3267 207.255 64.8647 207.856 65.2711C207.287 65.6716 206.744 66.1888 206.291 66.847C205.828 66.1446 205.262 65.6032 204.662 65.1935C205.231 64.7963 205.773 64.2824 206.227 63.6274Z" fill="#1A2B49"/>
</svg>
